<?xml version="1.0" encoding="UTF-8" standalone="no"?>
<!-- Created with Inkscape (http://www.inkscape.org/) -->

<svg
   xmlns:dc="http://purl.org/dc/elements/1.1/"
   xmlns:cc="http://creativecommons.org/ns#"
   xmlns:rdf="http://www.w3.org/1999/02/22-rdf-syntax-ns#"
   xmlns:svg="http://www.w3.org/2000/svg"
   xmlns="http://www.w3.org/2000/svg"
   version="1.1"
   width="892.91339"
   height="191.6929"
   id="svg3153">
  <defs
     id="defs3155">
    <clipPath
       id="clipPath3095">
      <path
         d="m 0,0 632.126,0 0,850.394 L 0,850.394 0,0 z"
         id="path3097" />
    </clipPath>
  </defs>
  <metadata
     id="metadata3158">
    <rdf:RDF>
      <cc:Work
         rdf:about="">
        <dc:format>image/svg+xml</dc:format>
        <dc:type
           rdf:resource="http://purl.org/dc/dcmitype/StillImage" />
        <dc:title></dc:title>
      </cc:Work>
    </rdf:RDF>
  </metadata>
  <g
     transform="translate(22.867618,-439.22954)"
     id="layer1">
    <g
       transform="matrix(5.3820827,0,0,-5.3820827,-2123.7348,1441.8797)"
       id="g3091">
      <g
         clip-path="url(#clipPath3095)"
         id="g3093">
        <g
           transform="translate(391.003,168.6494)"
           id="g3099">
          <path
             d="M 0,0 C 0,9.372 9.003,16.97 20.109,16.97 31.215,16.97 40.218,9.372 40.218,0 40.218,-9.372 31.215,-16.97 20.109,-16.97 9.003,-16.97 0,-9.372 0,0"
             id="path3101"
             style="fill:#009e6e;fill-opacity:1;fill-rule:nonzero;stroke:none" />
        </g>
        <g
           transform="translate(552.6066,159.6062)"
           id="g3103">
          <path
             d="M 0,0 C 0,0.788 0.639,1.427 1.427,1.427 2.216,1.427 2.855,0.788 2.855,0 2.855,-0.788 2.216,-1.427 1.427,-1.427 0.639,-1.427 0,-0.788 0,0 z"
             id="path3105"
             style="fill:none;stroke:#707172;stroke-width:0.259;stroke-linecap:butt;stroke-linejoin:miter;stroke-miterlimit:3.86400008;stroke-opacity:1;stroke-dasharray:none" />
        </g>
        <g
           transform="translate(553.7294,159.7153)"
           id="g3107">
          <path
             d="m 0,0 0.422,0 c 0.185,0 0.277,0.078 0.277,0.235 0,0.15 -0.083,0.225 -0.251,0.225 L 0,0.46 0,0 z m -0.352,-0.963 0,1.72 0.869,0 C 0.717,0.757 0.865,0.695 0.96,0.57 1.026,0.482 1.059,0.382 1.059,0.271 1.059,0.175 1.035,0.089 0.987,0.014 0.941,-0.059 0.876,-0.11 0.793,-0.139 c 0.081,-0.035 0.136,-0.075 0.163,-0.12 0.037,-0.062 0.055,-0.167 0.055,-0.316 0,-0.136 0.003,-0.22 0.009,-0.254 0.008,-0.045 0.031,-0.074 0.068,-0.088 l 0,-0.046 -0.398,0 c -0.026,0.086 -0.038,0.202 -0.038,0.347 0,0.13 -0.014,0.214 -0.041,0.252 -0.035,0.049 -0.115,0.074 -0.24,0.074 l -0.371,0 0,-0.673 -0.352,0 z"
             id="path3109"
             style="fill:#666366;fill-opacity:1;fill-rule:nonzero;stroke:none" />
        </g>
        <g
           transform="translate(543.3406,175.189)"
           id="g3111">
          <path
             d="m 0,0 c 8.353,0.173 9.18,-5.548 9.18,-7.954 0,-0.777 1.15,-9.271 -9.18,-9.401 -10.33,0.13 -9.18,8.624 -9.18,9.401 0,2.406 0.827,8.127 9.18,7.954 m 0,-2.461 c -4.923,0 -5.488,-3.54 -5.528,-6.044 -0.061,-3.757 1.412,-6.389 5.528,-6.432 4.116,0.043 5.589,2.675 5.528,6.432 C 5.488,-6.001 4.923,-2.461 0,-2.461 m -31.679,0.317 c 0,1.288 0.702,1.923 1.756,1.996 l 1.754,-0.008 -0.004,-11.445 c 0,-3.776 -4.344,-5.723 -8.266,-5.775 -3.922,0.052 -8.234,1.999 -8.234,5.775 l -0.003,11.437 3.509,0 0,-11.216 c 0,-0.343 0.43,-3.188 4.728,-3.153 4.298,-0.035 4.76,2.81 4.76,3.153 l 0,9.236 z m -46.998,-0.316 0,-5.433 5.69,0 c 0.693,0 2.425,0.772 2.425,2.511 0,2.506 -1.673,2.922 -2.492,2.922 l -5.623,0 z m 0.017,-6.49 0,-8.204 -3.446,0 0,16.985 10.304,-0.008 c 4.253,0 4.93,-2.636 4.93,-5.048 0,-2.794 -1.298,-3.881 -2.457,-4.213 0.575,-0.122 0.803,-0.177 1.193,-1.197 l 2.365,-6.519 -3.428,0 -2.083,5.454 c -0.326,0.932 -0.932,1.601 -2.473,1.557 l -3.98,0 -0.925,1.193 z m -16.258,6.494 -1.85,-5.385 6.032,0 -1.767,5.385 -2.415,0 z m 3.748,2.287 c 0.829,0 1.505,-0.465 1.804,-1.173 l 5.433,-15.858 -3.341,0 -2.095,5.545 c -0.456,1.176 -0.779,1.601 -2.167,1.601 l -4.972,-0.004 -0.477,1.33 -2.864,-8.426 -3.472,0 5.208,15.566 c 0.336,0.832 0.933,1.419 1.822,1.419 l 5.121,0 z m 34.889,-2.287 -1.851,-5.385 6.033,0 -1.767,5.385 -2.415,0 z m 3.748,2.287 c 0.829,0 1.505,-0.465 1.804,-1.173 l 5.433,-15.858 -3.342,0 -2.094,5.545 c -0.456,1.176 -0.779,1.601 -2.168,1.601 l -4.971,-0.004 -0.477,1.33 -2.865,-8.426 -3.471,0 5.207,15.566 c 0.337,0.832 0.933,1.419 1.823,1.419 l 5.121,0 z m 42.791,-14.133 0,-2.843 -7.594,0 c -5.111,0 -8.498,2.544 -8.498,8.5 0,5.956 3.387,8.515 8.499,8.515 l 7.601,0 0,-1.546 c 0,-1.077 -0.871,-1.296 -1.797,-1.296 l -1.023,0 -4.669,-0.002 c -1.545,0 -4.937,-1.08 -4.937,-5.655 0,-4.575 3.392,-5.64 4.881,-5.668 l 7.537,-0.005 z"
             id="path3113"
             style="fill:#707172;fill-opacity:1;fill-rule:nonzero;stroke:none" />
        </g>
        <g
           transform="translate(412.2752,174.1579)"
           id="g3115">
          <path
             d="m 0,0 c -0.301,0.286 -0.706,0.461 -1.152,0.461 -0.44,0 -0.846,-0.17 -1.141,-0.451 l -3.543,-4.059 c -0.577,-0.626 -1.712,-1.708 -3.655,-1.708 l -2.641,0.005 10.973,12.68 10.982,-12.68 -2.642,-0.005 c -1.943,0 -3.078,1.082 -3.655,1.708 L 0,0 z m 0,-13.985 c -0.301,0.286 -0.706,0.461 -1.152,0.461 -0.44,0 -0.846,-0.171 -1.141,-0.451 l -3.543,-4.059 c -0.577,-0.626 -1.712,-1.707 -3.655,-1.707 l -2.641,0.004 10.973,12.68 10.982,-12.68 -2.642,-0.004 c -1.943,0 -3.078,1.081 -3.655,1.707 L 0,-13.985 z m 0,6.992 c -0.301,0.287 -0.706,0.462 -1.152,0.462 -0.44,0 -0.846,-0.171 -1.141,-0.452 l -3.543,-4.058 c -0.577,-0.627 -1.712,-1.708 -3.655,-1.708 l -2.641,0.005 10.973,12.68 10.982,-12.68 -2.642,-0.005 c -1.943,0 -3.078,1.081 -3.655,1.708 L 0,-6.993 z m -3.402,-10.442 4.487,0 0,-5.371 -4.487,0 0,5.371 z"
             id="path3117"
             style="fill:#ffffff;fill-opacity:1;fill-rule:nonzero;stroke:none" />
        </g>
        <g
           transform="translate(553.7366,159.685)"
           id="g3119">
          <path
             d="m 0,0 0.423,0 c 0.185,0 0.278,0.078 0.278,0.235 0,0.151 -0.084,0.226 -0.252,0.226 L 0,0.461 0,0 z m -0.353,-0.965 0,1.724 0.872,0 c 0.2,0 0.348,-0.063 0.444,-0.187 C 1.028,0.484 1.062,0.384 1.062,0.271 1.062,0.175 1.037,0.09 0.989,0.014 0.943,-0.059 0.878,-0.11 0.795,-0.139 c 0.082,-0.035 0.136,-0.075 0.163,-0.12 0.037,-0.063 0.055,-0.168 0.055,-0.317 0,-0.136 0.003,-0.221 0.01,-0.255 0.008,-0.045 0.03,-0.074 0.067,-0.088 l 0,-0.046 -0.398,0 c -0.026,0.086 -0.039,0.202 -0.039,0.348 0,0.13 -0.013,0.214 -0.041,0.252 -0.035,0.05 -0.115,0.075 -0.24,0.075 l -0.372,0 0,-0.675 -0.353,0 z"
             id="path3121"
             style="fill:#707172;fill-opacity:1;fill-rule:nonzero;stroke:none" />
        </g>
      </g>
    </g>
  </g>
</svg>
