<svg id="logo_berneck" data-name="logo berneck" xmlns="http://www.w3.org/2000/svg" width="100%" viewBox="0 0 241 41.548" aria-label="Berneck"><path id="Caminho_1121" data-name="Caminho 1121" d="M1156.734,494.828a16.95,16.95,0,0,1-4.044,1.572,15.151,15.151,0,0,1-3.454.492c-3.065,0-5.291-.914-6.8-2.8-1.588-1.973-2.393-4.858-2.393-8.575s.8-6.606,2.372-8.58c1.495-1.876,3.727-2.788,6.826-2.788a15.081,15.081,0,0,1,7.175,1.847l1.927,1.033,2.876-8.908-1.344-.717a22.111,22.111,0,0,0-5.267-2.012,25.5,25.5,0,0,0-5.91-.647,20.458,20.458,0,0,0-8.251,1.592,17.278,17.278,0,0,0-6.154,4.462,19.114,19.114,0,0,0-3.725,6.658,27.014,27.014,0,0,0,0,16.125,19.094,19.094,0,0,0,3.724,6.655,17.223,17.223,0,0,0,6.157,4.464,20.45,20.45,0,0,0,8.25,1.592,24.985,24.985,0,0,0,6.12-.735,20.884,20.884,0,0,0,5.326-2.115l1.252-.723-2.687-8.954Z" transform="translate(-962.224 -464.749)" fill="currentColor"></path><path id="Caminho_1122" data-name="Caminho 1122" d="M658.889,491.773H674.8v-9.622H658.889v-5.309h16.941v-9.623h-29.69l2.258,5.352v34.894h27.757v-9.621H658.889Z" transform="translate(-612.422 -466.537)" fill="currentColor"></path><path id="Caminho_1123" data-name="Caminho 1123" d="M1028.444,491.773h15.909v-9.622h-15.909v-5.309h16.938v-9.623H1015.7l2.251,5.337v34.909h27.759v-9.621h-17.267Z" transform="translate(-879.962 -466.537)" fill="currentColor"></path><path id="Caminho_1124" data-name="Caminho 1124" d="M1272.722,482.986l.026.02,12.37-15.729-13.489-.058-10.613,13.408V467.22h-14.042l2.251,5.314V507.26h11.792v-9.342l1.172-1.489.121-.191h0Z" transform="translate(-1047.39 -466.538)" fill="currentColor"></path><path id="Caminho_1125" data-name="Caminho 1125" d="M1318.12,537.492l-.176-.224-7.445,9.51,8.96,11.364h.1l.028.034h14.787Z" transform="translate(-1093.378 -517.248)" fill="currentColor"></path><path id="Caminho_1126" data-name="Caminho 1126" d="M790,488a11.791,11.791,0,0,0,2.549-7.605,13.276,13.276,0,0,0-1.009-5.125A11.847,11.847,0,0,0,788.525,471a14.354,14.354,0,0,0-4.723-2.775,18.056,18.056,0,0,0-6.22-1.008H759.759l2.262,5.361v34.885h10.708V476.951h4.908a4.67,4.67,0,0,1,3.267.926,3.264,3.264,0,0,1,.935,2.517,3.365,3.365,0,0,1-1.008,2.67,4.6,4.6,0,0,1-3.194.989H774.38v9.729h.845l7.873,13.683h10.052V504.5l-7.484-12.945A13.805,13.805,0,0,0,790,488Z" transform="translate(-694.676 -466.537)" fill="currentColor"></path><path id="Caminho_1127" data-name="Caminho 1127" d="M553.684,485.93a10.957,10.957,0,0,0,1.145-1.279,9.89,9.89,0,0,0,1.4-2.563,9.207,9.207,0,0,0,.548-3.214,11.01,11.01,0,0,0-3.524-8.484c-2.293-2.1-5.759-3.169-10.3-3.169H524l2.254,5.342v34.9h16.512a22.528,22.528,0,0,0,6.722-.9,13.923,13.923,0,0,0,4.905-2.6,10.522,10.522,0,0,0,2.984-4.1,13.056,13.056,0,0,0,.923-4.919,10.325,10.325,0,0,0-2.31-6.981A11.428,11.428,0,0,0,553.684,485.93Zm-7.008,11.039a6.593,6.593,0,0,1-4.017,1.038h-5.915V476.68h6.212a4.164,4.164,0,0,1,2.691.748,2.185,2.185,0,0,1,.751,1.825,2.483,2.483,0,0,1-.744,2.1,4.3,4.3,0,0,1-2.644.742h-4.59v9.351H542.5a7.781,7.781,0,0,1,4.248.942,2.327,2.327,0,0,1,1.066,2.173A2.8,2.8,0,0,1,546.676,496.969Z" transform="translate(-524 -466.538)" fill="currentColor"></path><path id="Caminho_1128" data-name="Caminho 1128" d="M903.726,485.882,889.272,467.22h-8.4v0H878.6l2.262,5.383V474.9h0v32.568H891.96l-.008-18.4,14.232,18.368h8.625V467.22H903.717Z" transform="translate(-780.712 -466.538)" fill="currentColor"></path></svg>