<svg width="120" height="24" viewBox="0 0 120 24" fill="none" xmlns="http://www.w3.org/2000/svg">
    <path
        d="M6.49832 20.1263C9.87177 20.1263 13.457 18.7062 13.457 13.9856C13.457 9.22949 9.87177 7.84487 6.49832 7.84487H2.70007V20.1276H6.49832V20.1263ZM0 5.21765H6.60485C11.6104 5.21765 16.2636 7.95007 16.2636 13.9856C16.2636 19.9843 11.6118 22.7522 6.60485 22.7522H0V5.21765Z"
        fill="#304886"></path>
    <path
        d="M19.4556 15.2637V5.21765H22.1898V15.2269C22.1898 18.5641 24.2126 20.5523 27.4808 20.5523C30.7464 20.5523 32.7705 18.5641 32.7705 15.2269V5.21765H35.5048V15.2637C35.5048 20.1618 32.0248 23.144 27.4808 23.144C22.9 23.144 19.4556 20.1618 19.4556 15.2637Z"
        fill="#304886"></path>
    <path
        d="M40.0117 5.21761H42.7105V8.5904C43.8481 6.42471 45.9774 5.14661 48.9247 5.14661V7.91584C45.7657 7.84483 42.7105 9.61998 42.7105 14.4129V22.7535H40.0117V5.21761Z"
        fill="#304886"></path>
    <path
        d="M66.2142 13.9856C66.2142 10.0802 63.3024 7.48853 59.7159 7.48853C56.1307 7.48853 53.2189 10.292 53.2189 13.9856C53.2189 17.7121 56.1307 20.4813 59.7159 20.4813C63.2669 20.4813 66.2142 17.7489 66.2142 13.9856ZM50.4136 13.9856C50.4136 8.87315 54.5696 4.82581 59.4673 4.82581C62.4856 4.82581 64.9358 6.21042 66.2497 8.02108V5.21634H68.9485V22.7522H66.2497V19.9488C64.9358 21.7594 62.4856 23.144 59.4673 23.144C54.5682 23.144 50.4136 19.098 50.4136 13.9856Z"
        fill="#304886"></path>
    <path
        d="M76.5791 10.3287V17.357C76.5791 20.2683 78.4256 21.048 81.9411 20.2314V22.7167C77.0066 23.7462 73.8804 21.9711 73.8804 17.6042V10.3274H76.5791V10.3287ZM76.5791 0V5.21763H81.6926V7.88035H73.8804V0H76.5791Z"
        fill="#304886"></path>
    <path
        d="M87.1586 11.9974H99.2294C98.4837 9.05198 96.1045 7.52403 93.2282 7.52403C90.4255 7.52403 87.9753 9.33468 87.1586 11.9974ZM102.249 14.5878H86.9114C87.1941 18.0316 89.8929 20.4458 93.3373 20.4458C96.3202 20.4458 98.2377 19.0967 99.09 17.1795H102.037C100.936 20.835 97.279 23.144 93.3018 23.144C88.0464 23.144 84.0706 18.9902 84.0706 13.9856C84.0706 8.87315 88.1542 4.82581 93.3018 4.82581C98.3798 4.82581 102.321 8.76664 102.321 13.5937C102.32 14.0553 102.285 14.4116 102.249 14.5878Z"
        fill="#304886"></path>
    <path
        d="M110.058 13.8436L103.596 5.21765H106.827L111.691 11.7844L116.591 5.21765H119.822L113.36 13.8436L120 22.7522H116.769L111.691 15.9014L106.614 22.7522H103.384L110.058 13.8436Z"
        fill="#304886"></path>
</svg>