<svg id="Camada_1" data-name="Camada 1" xmlns="http://www.w3.org/2000/svg" viewBox="0 0 133.9 29.88"><defs><style>.cls-1{fill:#3d3d3f;}.cls-2{fill:#0091b3;}.cls-3{fill:#e2e71f;}</style></defs><title>eucatex</title><path class="cls-1" d="M70.51,14.69h-3.2v1.59h3.2V26c0,2.38.71,3.66,4,3.66a16.72,16.72,0,0,0,2.29-.17V27.73a10.07,10.07,0,0,1-2.07.17c-1.7,0-2.1-.59-2.1-1.87V16.28h4.17V14.69H72.61V10h-2.1ZM54.16,19.23c.14-2.35,1.73-3.23,5-3.23s4.87.76,4.87,2.89c0,1.45-.57,1.7-5.16,2-3.23.17-7.34.62-7.34,4.62,0,3.32,3.2,4.42,5.72,4.42,4.82,0,6.24-2,6.89-2.95h.06c0,1.16.14,2.61,2.27,2.61a8.88,8.88,0,0,0,1.76-.23V27.9c-.37,0-.74.06-1.11.06-.82,0-1.16-.42-1.16-1.64V18.6c0-2.83-1.81-4.37-6.75-4.37s-6.72,1.9-7,5Zm9.92,4.51c0,3-3.32,4.56-6.15,4.56-2.27,0-4.25-.68-4.25-3,0-1.76,1.42-2.49,3.85-2.72,4.19-.4,5.61-.51,6.55-1.11Zm-15.59.43c-.54,2.29-2.27,4-5.36,4-4,0-6.21-2.41-6.21-6.06,0-3.4,2-6.06,6.21-6.06,2.61,0,4.59,1,5.24,3.51h2.1c-.34-2.12-2.3-5.27-7.34-5.27-5.58,0-8.3,3.4-8.3,7.82,0,4.62,3,7.82,8.3,7.82s7.06-3.8,7.45-5.72ZM30.83,29.43h2.1V14.69h-2.1v8c0,3.34-1.87,5.44-6,5.44-2.66,0-4.45-1-4.45-3.94v-9.5h-2.1v9.13c0,3.51,1.47,6.07,6.38,6.07,3.26,0,5.47-1.79,6.09-3.34h.06Zm-17-4.71c-.74,2.24-2.32,3.4-5.84,3.4-3.74,0-5.92-2.49-5.92-5.55H16.32c0-6.69-4.51-8.33-8.3-8.33-5.5,0-8,3.71-8,7.82,0,3.6,2,7.82,8,7.82,4.88,0,7.08-2.55,7.94-5.16ZM2.1,21c.48-3.6,3.37-5,6.07-5s5.47,1.36,6.06,5Z"/><path class="cls-1" d="M91.85,24.72c-.74,2.24-2.32,3.4-5.84,3.4-3.74,0-5.92-2.49-5.92-5.55H94.32c0-6.69-4.51-8.33-8.3-8.33-5.5,0-8,3.71-8,7.82,0,3.6,2,7.82,8,7.82,4.87,0,7.08-2.55,7.94-5.16ZM80.09,21c.48-3.6,3.37-5,6.07-5s5.47,1.36,6.06,5Z"/><polygon class="cls-1" points="93.98 29.43 96.73 29.43 102.17 23.31 107.64 29.43 110.41 29.43 103.5 21.78 109.88 14.69 107.13 14.69 102.17 20.3 97.18 14.69 94.46 14.69 100.75 21.78 93.98 29.43"/><path class="cls-2" d="M117.88,8.28a10.75,10.75,0,0,0-1.61-2.75,8.81,8.81,0,0,0-1.15-1.25l.16.07a11.78,11.78,0,0,1,3.47,2.78c.25-.29.51-.56.76-.83a11.53,11.53,0,0,1,3.17-2.25A11.43,11.43,0,0,0,111.92.17c0,.1-.1.21-.15.34a11.43,11.43,0,0,0,4.15,13.38,12.16,12.16,0,0,1,2-5.61"/><path class="cls-3" d="M133.9,5.29A11.29,11.29,0,0,0,128,3.67a11.44,11.44,0,0,0-11.4,10.56c0,.43.25.51.36.35a15,15,0,0,1,9.13-6.07,21.36,21.36,0,0,0-8.45,6.86c-1,1.44-2.3,3.34-2.35,3.44a.46.46,0,0,0,0,.45l.56.27s.16.19.36-.06,1.73-2.92,1.94-3.29a11.31,11.31,0,0,0,4.3.83,11.41,11.41,0,0,0,11.4-11.4,1.36,1.36,0,0,0,0-.34"/></svg>