<svg xmlns="http://www.w3.org/2000/svg" width="272.017" height="68.976" viewBox="0 0 272.017 68.976">
  <g id="Grupo_182" data-name="Grupo 182" transform="translate(-94.938 -223.174)">
    <path id="Caminho_78" data-name="Caminho 78" d="M295.238,237.62a4.608,4.608,0,0,0-3.313,1.3,4.331,4.331,0,0,0-1.358,3.259,4.272,4.272,0,0,0,1.358,3.2,4.609,4.609,0,0,0,3.313,1.3,4.7,4.7,0,0,0,3.34-1.3,4.232,4.232,0,0,0,1.385-3.2,4.289,4.289,0,0,0-1.385-3.259,4.7,4.7,0,0,0-3.34-1.3" transform="translate(-114.015 -8.419)" fill="#6b7280"/>
    <path id="Caminho_79" data-name="Caminho 79" d="M258.054,243.359v-5.306a.487.487,0,0,0-.381-.471v0c-.032-.008-.064-.01-.1-.017-.005,0-.009,0-.015,0h0a13.476,13.476,0,0,0-2.935-.33,10.862,10.862,0,0,0-7.6,2.525q-2.768,2.524-2.768,7.575v4.4h-3.309a.492.492,0,0,0-.493.493h0v5.2h0a.491.491,0,0,0,.493.492h3.309v20.2a.493.493,0,0,0,.492.494h6.344a.5.5,0,0,0,.494-.494h0v-20.2h5.427a.492.492,0,0,0,.494-.492v-5.206a.493.493,0,0,0-.494-.493h-5.427v-3.748a3.9,3.9,0,0,1,1.195-3.232,5.9,5.9,0,0,1,3.691-.949c.326,0,.681.022,1.048.053v-.011a.272.272,0,0,0,.043.009.493.493,0,0,0,.493-.493" transform="translate(-84.807 -8.192)" fill="#6b7280"/>
    <path id="Caminho_80" data-name="Caminho 80" d="M299.88,298.867a.492.492,0,0,0,.492-.493V272.48a.492.492,0,0,0-.492-.493h-6.345a.493.493,0,0,0-.494.493v25.894a.493.493,0,0,0,.494.493Z" transform="translate(-115.456 -28.449)" fill="#6b7280"/>
    <path id="Caminho_81" data-name="Caminho 81" d="M341.834,271.457a6.651,6.651,0,0,1-4.969,2.037,6.769,6.769,0,0,1-4.779-1.874,7.169,7.169,0,0,1-2.008-5.511,7.335,7.335,0,0,1,1.982-5.511,6.982,6.982,0,0,1,9.747.107,7.288,7.288,0,0,1,2.01,5.35,7.415,7.415,0,0,1-1.982,5.4m-3.612-19.414a10.25,10.25,0,0,0-8.037,3.2V239.288h0a.493.493,0,0,0-.493-.493h-6.345a.493.493,0,0,0-.494.493V279.03a.493.493,0,0,0,.494.492H329.1a.492.492,0,0,0,.492-.492v-2.874q2.931,4.018,8.634,4.018a12.149,12.149,0,0,0,9.366-3.99,15.669,15.669,0,0,0,0-20.148,12.148,12.148,0,0,0-9.366-3.992" transform="translate(-132.831 -9.103)" fill="#6b7280"/>
    <path id="Caminho_82" data-name="Caminho 82" d="M462.452,287.985a4.958,4.958,0,0,1-1.63,3.828,5.721,5.721,0,0,1-4.018,1.493,4.58,4.58,0,0,1-2.8-.787,2.533,2.533,0,0,1-1.059-2.145q0-2.717,3.748-2.716h5.756Zm-4.181-17.432a14.643,14.643,0,0,0-11.436,5.2h0a.493.493,0,0,0-.027.659s.008.005.012.008h0l3.172,3.762h0v0a.492.492,0,0,0,.38.178.487.487,0,0,0,.348-.147l0,0c.017-.016.031-.034.047-.049s.036-.035.053-.051q3.294-3.211,6.635-3.21a5.1,5.1,0,0,1,3.72,1.249,4.637,4.637,0,0,1,1.277,3.476v1.193h-6.734a11.94,11.94,0,0,0-7.413,2.091,6.814,6.814,0,0,0-2.741,5.73,7.436,7.436,0,0,0,2.5,5.782,9.752,9.752,0,0,0,6.789,2.255,10.778,10.778,0,0,0,8.2-3.259v2.113h0a.493.493,0,0,0,.493.494h5.749a.493.493,0,0,0,.492-.494V282.066q0-5.594-3.122-8.553a11.694,11.694,0,0,0-8.389-2.96" transform="translate(-204.348 -27.613)" fill="#6b7280"/>
    <path id="Caminho_83" data-name="Caminho 83" d="M634.689,287.985a4.961,4.961,0,0,1-1.629,3.828,5.725,5.725,0,0,1-4.019,1.493,4.578,4.578,0,0,1-2.8-.787,2.534,2.534,0,0,1-1.06-2.145q0-2.717,3.748-2.716h5.756Zm-4.181-17.432a14.641,14.641,0,0,0-11.436,5.2h0a.493.493,0,0,0-.026.659.079.079,0,0,0,.012.008h0l3.172,3.762h0l0,0a.49.49,0,0,0,.728.03l0,0c.015-.016.03-.034.047-.049l.053-.051q3.294-3.211,6.635-3.21a5.1,5.1,0,0,1,3.719,1.249,4.637,4.637,0,0,1,1.277,3.476v1.193h-6.733a11.938,11.938,0,0,0-7.413,2.091,6.812,6.812,0,0,0-2.742,5.73,7.434,7.434,0,0,0,2.5,5.782,9.751,9.751,0,0,0,6.789,2.255,10.778,10.778,0,0,0,8.2-3.259v2.113h0a.494.494,0,0,0,.494.494h5.749a.493.493,0,0,0,.491-.494V282.066q0-5.594-3.123-8.553a11.694,11.694,0,0,0-8.388-2.96" transform="translate(-304.729 -27.613)" fill="#6b7280"/>
    <path id="Caminho_84" data-name="Caminho 84" d="M533.444,289.966a6.983,6.983,0,0,1-9.748.109,7.331,7.331,0,0,1-1.982-5.511,7.169,7.169,0,0,1,2.01-5.513,6.765,6.765,0,0,1,4.778-1.874,6.643,6.643,0,0,1,4.968,2.036,7.419,7.419,0,0,1,1.984,5.4,7.286,7.286,0,0,1-2.01,5.348m-3.584-19.414q-5.759,0-8.634,3.965v-2.875a.493.493,0,0,0-.494-.492h-5.748a.492.492,0,0,0-.491.493h0v35.668a.493.493,0,0,0,.491.494h6.345a.49.49,0,0,0,.355-.149.5.5,0,0,0,.138-.345V295.423a10.375,10.375,0,0,0,8.039,3.259,12.112,12.112,0,0,0,9.365-4.018,14.417,14.417,0,0,0,3.668-10.1,14.218,14.218,0,0,0-3.668-10.047,12.19,12.19,0,0,0-9.365-3.965" transform="translate(-244.519 -27.612)" fill="#6b7280"/>
    <path id="Caminho_85" data-name="Caminho 85" d="M598.009,238.793h-6.345a.493.493,0,0,0-.493.493v39.742a.486.486,0,0,0,.115.316.494.494,0,0,0,.378.177h6.345a.491.491,0,0,0,.492-.493V239.286a.492.492,0,0,0-.492-.493" transform="translate(-289.208 -9.103)" fill="#6b7280"/>
    <path id="Caminho_86" data-name="Caminho 86" d="M710.561,291.741l-.057-.039-4.288-3.286-.027-.02-.009,0a.455.455,0,0,0-.286-.095.486.486,0,0,0-.375.179s-.007.011-.01.008a.037.037,0,0,1-.007.01q-2.619,3.453-6.169,3.454a6.682,6.682,0,0,1-5.076-2.09,7.989,7.989,0,0,1,0-10.535,6.685,6.685,0,0,1,5.076-2.091,7.433,7.433,0,0,1,6.171,3.491.038.038,0,0,1,.005.007s.01.015.016.021a.5.5,0,0,0,.379.177.477.477,0,0,0,.3-.1l.007-.005.007-.006,4.336-3.367.012-.007.038-.036v0a.014.014,0,0,0,.006,0,.489.489,0,0,0,.14-.343.484.484,0,0,0-.074-.258,12.743,12.743,0,0,0-4.5-4.477,13.4,13.4,0,0,0-6.95-1.765,14.129,14.129,0,0,0-10.21,4.046,13.321,13.321,0,0,0-4.181,9.965,13.473,13.473,0,0,0,4.181,10.046,14.081,14.081,0,0,0,10.21,4.074,13.293,13.293,0,0,0,6.923-1.793,12.919,12.919,0,0,0,4.485-4.431c0-.005.033-.05.044-.07a.483.483,0,0,0,.073-.258.5.5,0,0,0-.19-.39" transform="translate(-343.796 -27.613)" fill="#6b7280"/>
    <path id="Caminho_87" data-name="Caminho 87" d="M416.414,271.432c-.012,0-.049-.013-.05-.013a8.151,8.151,0,0,0-1.856-.214,8.867,8.867,0,0,0-7.385,3.583v-2.763a.491.491,0,0,0-.492-.493h-5.749a.492.492,0,0,0-.494.493v25.893a.493.493,0,0,0,.494.493h6.345a.493.493,0,0,0,.492-.493V285a6.7,6.7,0,0,1,1.956-5.241,7.564,7.564,0,0,1,5.268-1.763h1.461a.494.494,0,0,0,.493-.494v-5.613c0-.253-.192-.389-.484-.455" transform="translate(-178.019 -27.992)" fill="#6b7280"/>
    <path id="Caminho_88" data-name="Caminho 88" d="M121.961,223.174a27.022,27.022,0,0,0-6.388,53.278c-6.741-4.061-11.277-10.931-11.277-18.351,0-.062,0-.122.007-.183-.113-11.855,8.207-23.2,28.313-28.127.489-.12.992-.24,1.494-.354.12-.026.285-.065.409-.095a.611.611,0,0,1,.427.062.644.644,0,0,1,.249.354.589.589,0,0,1,.014.108h0l0,12.64c0,.5-.222.705-.779.819-.029.006-9.327.918-16.37,5.834-8.346,5.825-7.87,12.577-7.87,12.6,1.745-6.212,7.99-10.643,16.532-12.617,1.326-.307,2.835-.505,2.839-.506a.435.435,0,0,1,.447.387c0,.028,0,.051,0,.075h0l0,8.974a.557.557,0,0,1-.552.507c-.079,0-.156,0-.237.006-5.519.2-15.715,2.24-15.715,9.913,0,7.57,8.516,9.712,15.65,7.751a27.026,27.026,0,0,0-7.2-53.075" fill="#6b7280"/>
    <path id="Caminho_89" data-name="Caminho 89" d="M253.665,372.092a1.865,1.865,0,0,1-1.356.465h-2.1v-3.341h2.1a1.865,1.865,0,0,1,1.356.465,1.767,1.767,0,0,1,0,2.412m-1.33-3.459h-2.773V376.8h.645v-3.661h2.128a2.52,2.52,0,0,0,1.811-.632,2.152,2.152,0,0,0,.663-1.633,2.116,2.116,0,0,0-.668-1.608,2.525,2.525,0,0,0-1.806-.632" transform="translate(-90.116 -84.775)" fill="#6b7280"/>
    <path id="Caminho_90" data-name="Caminho 90" d="M266.339,372.557v-3.341h2.1a1.864,1.864,0,0,1,1.356.465,1.762,1.762,0,0,1,0,2.412,1.865,1.865,0,0,1-1.356.465Zm4.106-.23a2.211,2.211,0,0,0,.5-1.454,2.116,2.116,0,0,0-.667-1.608,2.533,2.533,0,0,0-1.808-.632h-2.773V376.8h.646v-3.661h1.993l2.745,3.661h.756l-2.759-3.711a2.232,2.232,0,0,0,1.372-.762" transform="translate(-99.517 -84.775)" fill="#6b7280"/>
    <path id="Caminho_91" data-name="Caminho 91" d="M288.827,375.1a3.537,3.537,0,0,1-5.01,0,3.792,3.792,0,0,1,0-5.14,3.538,3.538,0,0,1,5,.005,3.78,3.78,0,0,1,.007,5.135m-2.513-6.769a4.164,4.164,0,1,0,2.971,1.214,4.038,4.038,0,0,0-2.971-1.214" transform="translate(-109.099 -84.601)" fill="#6b7280"/>
    <path id="Caminho_92" data-name="Caminho 92" d="M306.119,374.993a1.25,1.25,0,0,1-.37,1.041,1.7,1.7,0,0,1-1.053.284,5.024,5.024,0,0,1-.915-.086v.568a4.264,4.264,0,0,0,1,.124,2.138,2.138,0,0,0,1.443-.464,1.787,1.787,0,0,0,.537-1.428v-6.4h-.644Z" transform="translate(-121.715 -84.775)" fill="#6b7280"/>
    <path id="Caminho_93" data-name="Caminho 93" d="M316.7,372.68h3.477V372.1H316.7v-2.883h4.467v-.582h-5.112V376.8h5.26v-.582H316.7Z" transform="translate(-128.868 -84.774)" fill="#6b7280"/>
    <path id="Caminho_94" data-name="Caminho 94" d="M331.217,369.215H334.2V376.8h.645v-7.585h2.995v-.582h-6.62Z" transform="translate(-137.705 -84.775)" fill="#6b7280"/>
    <path id="Caminho_95" data-name="Caminho 95" d="M355.233,375.1a3.538,3.538,0,0,1-5.011,0,3.793,3.793,0,0,1,0-5.14,3.539,3.539,0,0,1,5,.005,3.782,3.782,0,0,1,.007,5.135m-2.513-6.769a4.165,4.165,0,1,0,2.971,1.214,4.038,4.038,0,0,0-2.971-1.214" transform="translate(-147.801 -84.601)" fill="#6b7280"/>
    <path id="Caminho_96" data-name="Caminho 96" d="M375.141,372.346l-.916-.445q-.384-.186-.59-.3a3.637,3.637,0,0,1-.433-.3,1.087,1.087,0,0,1-.328-.427,1.436,1.436,0,0,1-.1-.55,1.179,1.179,0,0,1,.507-1.04,2.089,2.089,0,0,1,1.2-.346A2.3,2.3,0,0,1,376.465,370l.47-.359a2.933,2.933,0,0,0-1.034-.947,2.887,2.887,0,0,0-1.417-.354,2.638,2.638,0,0,0-1.69.546,1.782,1.782,0,0,0-.685,1.471,1.664,1.664,0,0,0,.469,1.25,4.911,4.911,0,0,0,1.338.866l.927.447a4.576,4.576,0,0,1,1.164.735,1.271,1.271,0,0,1,.345.947,1.373,1.373,0,0,1-.517,1.131,2.076,2.076,0,0,1-1.337.415,2.822,2.822,0,0,1-2.464-1.484l-.482.359a3.7,3.7,0,0,0,1.242,1.267,3.191,3.191,0,0,0,1.69.464,2.758,2.758,0,0,0,1.814-.6,1.947,1.947,0,0,0,.723-1.567,1.816,1.816,0,0,0-.453-1.28,4.745,4.745,0,0,0-1.428-.959" transform="translate(-161.212 -84.602)" fill="#6b7280"/>
    <path id="Caminho_97" data-name="Caminho 97" d="M403.621,375.224a3.761,3.761,0,0,1-2.77.995h-1.659v-7h1.659a3.8,3.8,0,0,1,2.77.977,3.362,3.362,0,0,1,1,2.514,3.4,3.4,0,0,1-1,2.518m-2.77-6.591h-2.3V376.8h2.3a4.475,4.475,0,0,0,3.259-1.149,3.941,3.941,0,0,0,1.182-2.945,3.9,3.9,0,0,0-1.177-2.94,4.512,4.512,0,0,0-3.265-1.134" transform="translate(-176.946 -84.775)" fill="#6b7280"/>
    <path id="Caminho_98" data-name="Caminho 98" d="M419.245,372.68h3.478V372.1h-3.478v-2.883h4.469v-.582H418.6V376.8h5.259v-.582h-4.616Z" transform="translate(-188.635 -84.774)" fill="#6b7280"/>
    <path id="Caminho_99" data-name="Caminho 99" d="M444.659,375.686l-2.932-7.053h-.693l3.5,8.291h.259l3.49-8.291h-.693Z" transform="translate(-201.708 -84.775)" fill="#6b7280"/>
    <rect id="Retângulo_52" data-name="Retângulo 52" width="0.645" height="8.167" transform="translate(248.27 283.859)" fill="#6b7280"/>
    <path id="Caminho_100" data-name="Caminho 100" d="M473.617,375.224a3.762,3.762,0,0,1-2.77.995h-1.659v-7h1.659a3.8,3.8,0,0,1,2.77.977,3.362,3.362,0,0,1,1,2.514,3.4,3.4,0,0,1-1,2.518m-2.77-6.591h-2.3V376.8h2.3a4.478,4.478,0,0,0,3.26-1.149,3.941,3.941,0,0,0,1.181-2.945,3.9,3.9,0,0,0-1.176-2.94,4.513,4.513,0,0,0-3.265-1.134" transform="translate(-217.741 -84.775)" fill="#6b7280"/>
    <path id="Caminho_101" data-name="Caminho 101" d="M487.91,374.1l1.906-4.615,1.893,4.615Zm1.782-5.767-3.5,8.291h.667l.817-1.942h4.281l.8,1.942h.68l-3.489-8.291Z" transform="translate(-228.026 -84.601)" fill="#6b7280"/>
  </g>
</svg>