<svg xmlns="http://www.w3.org/2000/svg" fill="none" viewBox="0 0 1956 500" height="500" width="1956">
<path fill="#37323D" d="M171.536 291.341V373.57C155.083 386.88 121.664 398.903 94.5053 398.903C42.0413 398.903 0 364.947 0 307.782C0 250.079 42.0413 216.136 94.5053 216.136C123.236 216.136 146.996 225.808 164.753 239.373L142.027 277.507C129.24 267.567 113.833 262.356 95.5666 262.356C70.5026 262.356 51.6987 278.555 51.6987 307.782C51.6987 336.499 70.5026 352.683 97.9173 352.683C107.051 352.683 117.217 350.334 126.096 346.694V326.587H86.9293V291.341H171.536Z"></path>
<path fill="#37323D" d="M338.867 398.902C350.889 398.902 361.85 395.773 369.155 392.105V398.902H338.867Z"></path>
<path fill="#37323D" d="M275.174 298.379H240.185V262.101H275.174C287.451 262.101 294.489 270.186 294.489 280.367C294.489 290.294 287.451 298.379 275.174 298.379ZM364.469 352.953C359.498 354.779 351.937 355.813 346.966 355.813C332.353 355.813 317.994 343.282 302.857 330.226C328.162 323.711 346.187 304.398 346.187 277.762C346.187 238.071 314.073 218.757 280.13 218.757H190.057V396.297H240.185V332.577H242.549C266.819 348.506 297.109 398.902 338.866 398.902C350.889 398.902 361.849 395.773 369.155 392.106L364.469 352.953Z"></path>
<path fill="#37323D" d="M433.118 262.356V285.848H510.659V326.841H433.118V352.684H529.719V396.297H385.072V218.757H529.719V262.356H433.118Z"></path>
<path fill="#37323D" d="M600.731 262.356V285.848H678.272V326.841H600.731V352.684H697.318V396.297H552.686V218.757H697.318V262.356H600.731Z"></path>
<path fill="#37323D" d="M894.698 218.756V396.296H851.085L770.414 298.648V396.296H720.301V218.756H763.645L844.57 316.66V218.756H894.698Z"></path>
<path fill="#37323D" d="M1372.41 307.527H1339.24V262.101H1372.41C1385.19 262.101 1394.86 271.235 1394.86 285.068C1394.86 298.379 1385.19 307.527 1372.41 307.527ZM1380.49 218.756H1289.12V396.297H1339.24V350.871H1380.49C1416.26 350.871 1446.55 326.587 1446.55 285.324C1446.55 239.912 1416.26 218.756 1380.49 218.756Z"></path>
<path fill="#37323D" d="M1680.73 329.447L1703.17 268.091L1725.38 329.447H1680.73ZM1790.12 373.032L1732.94 218.756H1673.68L1607.1 396.297H1657.76L1668.2 366.263H1737.37L1748.08 396.297H1798.74L1790.12 373.032Z"></path>
<path fill="#37323D" d="M1955.38 370.171C1939.44 385.322 1912.04 398.902 1882.54 398.902C1844.61 398.902 1813.23 381.159 1798.74 349.725C1793.19 337.674 1790.12 323.613 1790.12 307.782C1790.12 291.794 1793.19 277.621 1798.74 265.499C1813.21 233.879 1844.61 216.137 1882.54 216.137C1928.23 216.137 1954.06 241.738 1955.11 283.242L1909.18 292.63C1908.89 274.109 1901.06 262.355 1881.75 262.355C1858.52 262.355 1841.81 278.555 1841.81 307.782C1841.81 336.498 1858.52 352.683 1883.57 352.683C1903.16 352.683 1919.87 343.819 1932.38 332.845L1955.38 370.171Z"></path>
<path fill="#37323D" d="M1599.01 352.952V396.296H1463.51V218.756H1513.64V352.952H1599.01Z"></path>
<path fill="#37323D" d="M1012.87 117.288C1014.63 117.609 1016.41 117.957 1018.2 118.305C1062.73 127.197 1104.72 144.319 1143.02 169.232C1185.4 196.78 1223.38 234.013 1256.07 280.04C1228.86 158.761 1103.62 21.3254 1083.53 5.73818e-05C1076.3 14.4521 1048.26 68.852 1012.87 117.288Z"></path>
<mask height="281" width="245" y="0" x="1012" maskUnits="userSpaceOnUse" style="mask-type:luminance" id="mask0_349_184">
<path fill="white" d="M1012.87 117.288C1014.63 117.61 1016.41 117.958 1018.19 118.306C1062.73 127.196 1104.72 144.318 1143.02 169.232C1185.4 196.782 1223.39 234.014 1256.07 280.039C1228.86 158.762 1103.61 21.3258 1083.53 0.000423593C1076.3 14.4524 1048.26 68.8511 1012.87 117.288Z"></path>
</mask>
<g mask="url(#mask0_349_184)">
<path fill="#37323D" d="M1208.32 376.655L1367.32 54.9908L1060.62 -96.6145L901.619 225.049L1208.32 376.655Z"></path>
</g>
<path fill="#37323D" d="M925.892 335.876C929.284 325.771 933.14 315.89 937.416 306.355C953.216 271.22 975.239 239.522 1002.89 212.116C1027.48 187.728 1052.06 171.339 1068.36 161.876C1075.15 157.931 1081.07 154.851 1085.76 152.575C1063.23 142.702 1039.64 135.284 1015.51 130.463C1011.83 129.74 1008.21 129.08 1004.64 128.491C964.858 183.532 920.66 262.4 925.892 335.876Z"></path>
<mask height="208" width="161" y="128" x="925" maskUnits="userSpaceOnUse" style="mask-type:luminance" id="mask1_349_184">
<path fill="white" d="M925.892 335.876C929.284 325.771 933.142 315.89 937.418 306.355C953.216 271.22 975.239 239.522 1002.89 212.118C1027.48 187.728 1052.06 171.34 1068.36 161.876C1075.15 157.931 1081.07 154.852 1085.76 152.575C1063.23 142.702 1039.64 135.284 1015.51 130.464C1011.83 129.74 1008.21 129.08 1004.64 128.491C964.858 183.534 920.66 262.4 925.892 335.876Z"></path>
</mask>
<g mask="url(#mask1_349_184)">
<path fill="#37323D" d="M1053.34 401.463L1168.15 169.215L953.081 62.9056L838.277 295.154L1053.34 401.463Z"></path>
</g>
<path fill="#37323D" d="M1070.27 291.681C1101.51 259.277 1139.28 233.818 1182.71 215.893C1167.75 202.306 1151.93 190.077 1135.63 179.481C1125.93 173.17 1115.78 167.287 1105.43 161.949C1084.59 204.199 1072.77 247.787 1070.27 291.681Z"></path>
<mask height="131" width="113" y="161" x="1070" maskUnits="userSpaceOnUse" style="mask-type:luminance" id="mask2_349_184">
<path fill="white" d="M1070.27 291.68C1101.51 259.276 1139.28 233.818 1182.71 215.892C1167.75 202.306 1151.93 190.076 1135.63 179.48C1125.93 173.169 1115.78 167.286 1105.43 161.948C1084.59 204.197 1072.77 247.788 1070.27 291.68Z"></path>
</mask>
<g mask="url(#mask2_349_184)">
<path fill="#37323D" d="M1160.63 336.344L1234.24 187.424L1092.35 117.285L1018.74 266.205L1160.63 336.344Z"></path>
</g>
<path fill="#37323D" d="M1074.91 172.643C1059.28 181.748 1035.68 197.504 1012.08 220.955C985.603 247.271 964.499 277.711 949.359 311.444C941.727 328.459 935.525 346.66 930.918 365.54C939.202 395.864 957.181 422.832 984.37 445.783C987.887 433.259 991.985 420.948 996.546 409.129C1008.8 377.457 1024.73 348.392 1043.91 322.728C1046.95 264.953 1062.43 212.768 1091.17 163.564C1087.32 165.591 1082.05 168.492 1074.91 172.643Z"></path>
<mask height="283" width="162" y="163" x="930" maskUnits="userSpaceOnUse" style="mask-type:luminance" id="mask3_349_184">
<path fill="white" d="M1074.91 172.643C1059.28 181.747 1035.68 197.503 1012.08 220.954C985.603 247.27 964.501 277.71 949.359 311.444C941.727 328.458 935.525 346.66 930.918 365.54C939.202 395.864 957.182 422.832 984.371 445.782C987.889 433.258 991.986 420.948 996.547 409.13C1008.8 377.458 1024.73 348.391 1043.91 322.727C1046.95 264.954 1062.43 212.768 1091.17 163.564C1087.32 165.591 1082.05 168.492 1074.91 172.643Z"></path>
</mask>
<g mask="url(#mask3_349_184)">
<path fill="#37323D" d="M1059.7 509.443L1203.28 218.983L962.387 99.9034L818.809 390.363L1059.7 509.443Z"></path>
</g>
<path fill="#37323D" d="M1072.64 307.838C1071.67 308.918 1070.71 310.016 1069.77 311.104C1070.09 371.334 1087.67 420.663 1103.54 452.986C1126.22 400.114 1160.76 363.647 1186.17 342.126C1214.81 317.871 1240.77 304.214 1253.12 298.438C1234.82 271.104 1214.52 246.538 1192.76 225.364C1145.45 244.047 1105.05 271.801 1072.64 307.838Z"></path>
<mask height="228" width="185" y="225" x="1069" maskUnits="userSpaceOnUse" style="mask-type:luminance" id="mask4_349_184">
<path fill="white" d="M1072.64 307.838C1071.68 308.918 1070.71 310.015 1069.77 311.106C1070.09 371.334 1087.67 420.663 1103.54 452.986C1126.22 400.114 1160.76 363.649 1186.17 342.125C1214.82 317.873 1240.77 304.214 1253.12 298.438C1234.82 271.104 1214.52 246.538 1192.76 225.364C1145.45 244.048 1105.05 271.801 1072.64 307.838Z"></path>
</mask>
<g mask="url(#mask4_349_184)">
<path fill="#37323D" d="M1217.12 525.821L1343.54 270.061L1105.78 152.529L979.35 408.289L1217.12 525.821Z"></path>
</g>
<path fill="#37323D" d="M1008.9 413.218C1003.78 426.474 999.263 440.372 995.477 454.548C1018.88 471.894 1048.4 487.032 1083.39 499.619C1072.79 480.463 1044.75 422.688 1043.49 345.687C1029.89 366.316 1018.29 388.999 1008.9 413.218Z"></path>
<mask height="155" width="89" y="345" x="995" maskUnits="userSpaceOnUse" style="mask-type:luminance" id="mask5_349_184">
<path fill="white" d="M1008.9 413.218C1003.78 426.474 999.262 440.372 995.477 454.548C1018.87 471.894 1048.4 487.034 1083.39 499.619C1072.79 480.462 1044.75 422.69 1043.48 345.687C1029.89 366.318 1018.28 388.999 1008.9 413.218Z"></path>
</mask>
<g mask="url(#mask5_349_184)">
<path fill="#37323D" d="M1066.12 534.542L1144.54 375.914L1012.74 310.765L934.326 469.393L1066.12 534.542Z"></path>
</g>
<path fill="#37323D" d="M1194.66 351.588C1168.44 373.833 1132.82 412.048 1111.45 468.073C1118 479.757 1123.34 487.506 1125.74 490.818C1221.51 450.486 1266.82 389.285 1260.48 308.873C1250.11 313.649 1223.5 327.12 1194.66 351.588Z"></path>
<mask height="183" width="151" y="308" x="1111" maskUnits="userSpaceOnUse" style="mask-type:luminance" id="mask6_349_184">
<path fill="white" d="M1194.66 351.589C1168.44 373.833 1132.82 412.049 1111.45 468.073C1118 479.758 1123.34 487.506 1125.74 490.818C1221.51 450.486 1266.82 389.285 1260.48 308.874C1250.11 313.65 1223.5 327.119 1194.66 351.589Z"></path>
</mask>
<g mask="url(#mask6_349_184)">
<path fill="#37323D" d="M1236.31 552.539L1339.1 344.601L1141.96 247.153L1039.18 455.091L1236.31 552.539Z"></path>
</g>
</svg>
