<svg width="189px" height="56px" viewBox="0 0 189 56" version="1.1" xmlns="http://www.w3.org/2000/svg" xmlns:xlink="http://www.w3.org/1999/xlink">
    <defs>
        <polygon id="path-1" points="0 0.00517647059 54.5633431 0.00517647059 54.5633431 54.5685412 0 54.5685412"></polygon>
    </defs>
    <g id="Symbols" stroke="none" stroke-width="1" fill="none" fill-rule="evenodd">
        <g id="XL/Rodapé" transform="translate(-101.000000, -37.000000)">
            <g id="logo-negativa" transform="translate(101.000000, 37.000000)">
                <path d="M156.6411,33.0133725 C156.076218,33.0133725 155.350002,32.9167451 154.758159,32.5399412 L154.758159,25.2460784 C154.933943,25.0515294 155.858806,24.8774706 156.594727,24.8774706 C158.934924,24.8774706 159.9521,26.3797255 159.9521,28.9625686 C159.9521,30.9259608 158.712551,33.0133725 156.6411,33.0133725 M156.668061,21.6182353 C155.26912,21.6182353 153.117218,21.8876275 151.019022,22.5597059 L151.019022,39.2859608 L151.019022,41.4029216 L151.019022,41.4169412 C151.350531,41.4704314 151.669747,41.5062353 151.97559,41.5239216 C152.281002,41.5418235 152.582747,41.5508824 152.880178,41.5508824 C153.177178,41.5508824 153.478276,41.5418235 153.784551,41.5239216 C154.089963,41.5062353 154.408747,41.4704314 154.74112,41.4169412 L154.74112,41.4029216 L154.758159,41.4029216 L154.758159,35.8071569 C154.758159,35.8071569 155.78612,36.098549 157.232943,36.098549 C160.837492,36.098549 163.717982,33.5085882 163.717982,28.7466667 C163.717982,24.0395294 160.97208,21.6182353 156.668061,21.6182353" id="Fill-1" fill="#D2AE82"></path>
                <path d="M72.0135059,31.8463804 C71.9390941,31.9365373 71.8601529,32.021949 71.7704275,32.0972235 C71.2484667,32.5337725 70.4758784,32.7514 69.4515843,32.7514 C68.740251,32.7514 68.1509961,32.6144392 67.684251,32.3400863 C67.4042902,32.1757333 67.1685451,31.9619882 66.9763686,31.698851 C66.4971137,31.0420863 66.2451922,30.2418902 66.2145647,29.3023608 C66.2124078,29.2380863 66.2083098,29.1753216 66.2083098,29.1097529 C66.2083098,28.5599686 66.298251,28.0336941 66.4787804,27.5309294 C66.6586627,27.0288118 66.9289176,26.5875176 67.2893294,26.2081255 C67.6495255,25.828949 68.0860745,25.5252627 68.5981137,25.2977137 C69.1101529,25.0701647 69.7076039,24.9562824 70.3904667,24.9562824 C70.9971922,24.9562824 71.4428,24.9802235 71.7275059,25.0274588 C72.0119961,25.0749098 72.2867804,25.1460863 72.5527216,25.2407725 L72.5527216,28.6527137 L72.5527216,30.0203804 C72.5527216,30.8054784 72.370898,31.4122039 72.0135059,31.8463804 M73.7996039,21.9224392 C72.7599961,21.7209882 71.6250549,21.6198314 70.394349,21.6198314 C69.1634275,21.6198314 68.0532902,21.8165373 67.0650157,22.209949 C66.0760941,22.6033608 65.2338392,23.1436549 64.5373882,23.8295373 C63.8413686,24.5156353 63.3064667,25.3227333 62.9333294,26.2508314 C62.5597608,27.1791451 62.3734078,28.1680667 62.3734078,29.2171647 C62.3734078,30.2261451 62.5194275,31.149498 62.8123294,31.9865765 C63.0491529,32.6653412 63.3774275,33.2696941 63.7932706,33.8024392 C63.8907608,33.9271059 63.9914863,34.0489686 64.0986824,34.1656549 C64.663349,34.7816549 65.3442706,35.2609098 66.1418784,35.6034196 C66.9388392,35.9470078 67.8520549,36.1016549 68.8810941,36.1016549 C69.829251,36.1016549 70.5910549,35.992302 71.1662902,35.7397333 C71.7413098,35.4878118 72.2710353,35.1599686 72.755251,34.7559882 L72.755251,36.2996549 C72.755251,36.3540078 72.7507216,36.4053412 72.7489961,36.4584 C72.7416627,36.6745176 72.7194471,36.8802824 72.6829961,37.0756941 C72.6646627,37.1621843 72.6482706,37.2506157 72.6251922,37.3327922 C72.623251,37.3403412 72.6206627,37.3474588 72.6187216,37.3550078 C72.5904667,37.452498 72.5591922,37.5469686 72.5238196,37.6373412 C72.5205843,37.6453216 72.5171333,37.653302 72.513898,37.6612824 C72.3980745,37.9479294 72.2408392,38.2052431 72.0413294,38.4325765 C72.0314078,38.4440078 72.0201922,38.4543608 72.0098392,38.4653608 C71.9643294,38.5158314 71.9155843,38.5639294 71.8657608,38.6113804 C71.7969569,38.6732824 71.7251333,38.7328118 71.648349,38.7873804 C71.028898,39.2278118 70.2282706,39.4642039 69.2507804,39.5023804 C69.1586824,39.5058314 69.0670157,39.5099294 68.9716824,39.5099294 C68.3649569,39.5099294 67.7448588,39.4525569 67.1111725,39.3360863 C66.4779176,39.2202627 65.8755059,39.0550471 65.3043686,38.8408706 C65.1080941,39.1980471 64.9387804,39.6264 64.7957804,40.1257137 C64.6665843,40.5777922 64.5915255,41.0602824 64.564349,41.5701647 C64.5615451,41.6240863 64.5565843,41.6771451 64.5548588,41.7319294 C65.946898,42.2672627 67.5170941,42.5351451 69.2660941,42.5351451 C69.3049176,42.5351451 69.3422314,42.5334196 69.3808392,42.5329882 C69.4369176,42.5334196 69.4899765,42.5351451 69.5469176,42.5351451 C70.5155647,42.5351451 71.4130353,42.3988314 72.2408392,42.1264196 C72.7000353,41.9752235 73.1214863,41.7811059 73.5123098,41.5520471 C73.6315843,41.4821647 73.7495647,41.4103412 73.8625843,41.3333412 C73.899251,41.3085373 73.9346235,41.2826549 73.9704275,41.2572039 C74.0448392,41.2039294 74.1183882,41.1493608 74.1906431,41.093498 C74.2176039,41.0721451 74.2434863,41.0499294 74.2700157,41.0285765 C74.3101333,40.9960078 74.350898,40.964302 74.3899373,40.9306549 C74.3938196,40.9274196 74.3970549,40.9235373 74.4009373,40.920302 C74.5493294,40.7919686 74.6897412,40.656949 74.8206627,40.513949 C74.8674667,40.4626157 74.911898,40.4091255 74.9569765,40.3562824 C74.9774667,40.3321255 74.9990353,40.3090471 75.0190941,40.2846745 C75.0695647,40.2229882 75.1180941,40.1597922 75.1659765,40.095949 C75.1776235,40.0802039 75.190349,40.0648902 75.2019961,40.0491451 C75.4377412,39.7273412 75.641349,39.3755569 75.8123882,38.9937922 C76.1553294,38.2265961 76.3270157,37.3487529 76.3270157,36.3604784 L76.3270157,22.5582824 C75.6808196,22.3361255 74.8387804,22.1243216 73.7996039,21.9224392" id="Fill-3" fill="#D2AE82"></path>
                <path d="M78.2866333,21.8605588 C78.9289471,21.7535784 79.5624176,21.7000882 80.1872608,21.7000882 C80.8116725,21.7000882 81.4453588,21.7535784 82.0876725,21.8605588 L82.0876725,29.195402 C82.0876725,29.9272255 82.1454765,30.5296373 82.2615157,31.0022059 C82.3775549,31.4754216 82.5561431,31.8498529 82.7970647,32.1265784 C83.0379863,32.4033039 83.3364961,32.5995784 83.6938882,32.715402 C84.0506333,32.8316569 84.4701431,32.8894608 84.9519863,32.8894608 C85.6117706,32.8894608 86.1652216,32.8271275 86.6116922,32.7020294 L86.6116922,21.8605588 C87.2540059,21.7535784 87.8786333,21.7000882 88.4853588,21.7000882 C89.1099863,21.7000882 89.7436725,21.7535784 90.3859863,21.8605588 L90.3859863,35.1647353 C89.814849,35.3612255 89.0608098,35.5529706 88.1238686,35.7401863 C87.1871431,35.9276176 86.2098686,36.0214412 85.1929078,36.0214412 C84.2827118,36.0214412 83.4083196,35.9496176 82.5695157,35.8072647 C81.7304961,35.6644804 80.9943588,35.3612255 80.3611039,34.8970686 C79.7274176,34.4331275 79.2235745,33.7550098 78.8487118,32.8627157 C78.473849,31.9706373 78.2866333,30.7839314 78.2866333,29.3023824 L78.2866333,21.8605588 Z" id="Fill-5" fill="#D2AE82"></path>
                <path d="M100.05462,29.4363451 C99.8404431,29.4005412 99.6083647,29.3692667 99.3586,29.3425216 C99.1084039,29.3157765 98.8856,29.3024039 98.6893255,29.3024039 C97.8147176,29.3024039 97.1232275,29.4587765 96.6148549,29.7708745 C96.106051,30.0834039 95.8519725,30.5872471 95.8519725,31.2832667 C95.8519725,31.7474235 95.9498941,32.1043843 96.1463843,32.3539333 C96.3424431,32.6043451 96.5788353,32.7870314 96.8555608,32.9028549 C97.1322863,33.0191098 97.426698,33.0900706 97.7392275,33.1170314 C98.0511098,33.1437765 98.3235216,33.1569333 98.5553843,33.1569333 C98.8232667,33.1569333 99.0909333,33.1349333 99.3586,33.0900706 C99.6264824,33.0458549 99.8581294,33.0057373 100.05462,32.9697176 L100.05462,29.4363451 Z M100.05462,26.6790118 C100.05462,26.2508745 99.9830118,25.9027569 99.8404431,25.6350902 C99.6974431,25.3674235 99.5011686,25.1577765 99.2514039,25.0059333 C99.0012078,24.8545216 98.6934235,24.7516392 98.328051,24.698149 C97.9620314,24.6446588 97.5558941,24.6179137 97.1100706,24.6179137 C96.1463843,24.6179137 95.1199333,24.8711294 94.0317961,25.2459922 C93.7813843,24.782051 93.5941686,24.3450706 93.469502,23.9344039 C93.3446196,23.5239529 93.2820706,23.0332667 93.2820706,22.4621294 C94.0671686,22.1942471 94.8522667,21.9321882 95.6375804,21.8073059 C96.4228941,21.6824235 97.154502,21.6198745 97.8326196,21.6198745 C99.6886,21.6198745 101.138659,22.0661294 102.182796,22.9579922 C103.226718,23.8507176 103.748678,25.2783451 103.748678,27.2413059 L103.748678,35.2717373 C103.123835,35.4684431 102.365482,35.6558745 101.473404,35.8340314 C100.580678,36.0121882 99.5729922,36.101698 98.4486196,36.101698 C97.5382078,36.101698 96.7039333,36.0214627 95.9455804,35.8607765 C95.1867961,35.7000902 94.5356392,35.4324235 93.9914627,35.0577765 C93.4468549,34.6829137 93.0277765,34.2010706 92.7333647,33.6122471 C92.4387373,33.0232078 92.2916392,32.3004431 92.2916392,31.4439529 C92.2916392,30.5872471 92.4743255,29.8690118 92.8405608,29.2888157 C93.2059333,28.7092667 93.6789333,28.2451098 94.2591294,27.8972078 C94.8388941,27.5490902 95.4859529,27.2993255 96.2000902,27.1474824 C96.9135804,26.9960706 97.627502,26.9199333 98.3416392,26.9199333 C98.8588549,26.9199333 99.4297765,26.9468941 100.05462,27.0003843 L100.05462,26.6790118 Z" id="Fill-7" fill="#D2AE82"></path>
                <path d="M105.648982,21.9409235 C105.916649,21.8872176 106.170943,21.8473157 106.411865,21.8205706 C106.652786,21.7938255 106.916139,21.7804529 107.201708,21.7804529 C107.469375,21.7804529 107.732512,21.7983549 107.991335,21.8339431 C108.249943,21.8697471 108.504022,21.9141784 108.754218,21.9676686 C108.807708,22.0573941 108.856884,22.1865902 108.901531,22.3559039 C108.945747,22.525649 108.98608,22.7038059 109.021884,22.8912373 C109.057688,23.0786686 109.088963,23.2661 109.115708,23.4535314 C109.142453,23.6407471 109.164669,23.7971196 109.182571,23.922002 C109.574904,23.3689824 110.056963,22.8737667 110.6281,22.4361392 C111.198806,21.9991588 111.912943,21.7804529 112.769649,21.7804529 C112.947806,21.7804529 113.153139,21.7895118 113.385218,21.807198 C113.61708,21.8251 113.786825,21.8518451 113.894022,21.8872176 C113.92961,22.0662373 113.956355,22.2715706 113.974257,22.5032176 C113.991727,22.7352961 114.001002,22.9762176 114.001002,23.2259824 C114.001002,23.5296686 113.987414,23.8596686 113.960669,24.216198 C113.933924,24.5735902 113.884747,24.9124333 113.813571,25.2333745 C113.61708,25.198002 113.398806,25.1801 113.157884,25.1801 L112.716159,25.1801 C112.412473,25.1801 112.073629,25.2113745 111.698982,25.2737078 C111.32412,25.3364725 110.966943,25.5012569 110.6281,25.7689235 C110.289041,26.0365902 110.008002,26.438198 109.784982,26.9735314 C109.561747,27.5088647 109.450237,28.2585902 109.450237,29.2220608 L109.450237,35.8071784 C109.12908,35.8608843 108.807708,35.8964725 108.486551,35.9143745 C108.165394,35.9318451 107.852865,35.9411196 107.549825,35.9411196 C107.245924,35.9411196 106.938355,35.9318451 106.626041,35.9143745 C106.313727,35.8964725 105.987825,35.8608843 105.648982,35.8071784 L105.648982,21.9409235 Z" id="Fill-9" fill="#D2AE82"></path>
                <path d="M128.308055,21.9409235 C128.575722,21.8872176 128.830016,21.8473157 129.070937,21.8205706 C129.311859,21.7938255 129.575212,21.7804529 129.86078,21.7804529 C130.128447,21.7804529 130.391584,21.7983549 130.650408,21.8339431 C130.909016,21.8697471 131.163094,21.9141784 131.41329,21.9676686 C131.46678,22.0573941 131.515957,22.1865902 131.560604,22.3559039 C131.60482,22.525649 131.645153,22.7038059 131.680957,22.8912373 C131.716761,23.0786686 131.748035,23.2661 131.77478,23.4535314 C131.801525,23.6407471 131.823741,23.7971196 131.841643,23.922002 C132.233976,23.3689824 132.716035,22.8737667 133.287173,22.4361392 C133.858094,21.9991588 134.572231,21.7804529 135.428722,21.7804529 C135.606878,21.7804529 135.812212,21.7895118 136.04429,21.807198 C136.276153,21.8251 136.445682,21.8518451 136.553094,21.8872176 C136.588682,22.0662373 136.615427,22.2715706 136.633329,22.5032176 C136.6508,22.7352961 136.660075,22.9762176 136.660075,23.2259824 C136.660075,23.5296686 136.646486,23.8596686 136.619741,24.216198 C136.592996,24.5735902 136.54382,24.9124333 136.472643,25.2333745 C136.276153,25.198002 136.057878,25.1801 135.816741,25.1801 L135.375231,25.1801 C135.071545,25.1801 134.732702,25.2113745 134.358055,25.2737078 C133.983192,25.3364725 133.626016,25.5012569 133.287173,25.7689235 C132.948114,26.0365902 132.667075,26.438198 132.444055,26.9735314 C132.22082,27.5088647 132.10931,28.2585902 132.10931,29.2220608 L132.10931,35.8071784 C131.788153,35.8608843 131.46678,35.8964725 131.145624,35.9143745 C130.824467,35.9318451 130.511937,35.9411196 130.208898,35.9411196 C129.904996,35.9411196 129.597427,35.9318451 129.285114,35.9143745 C128.9728,35.8964725 128.646898,35.8608843 128.308055,35.8071784 L128.308055,21.9409235 Z" id="Fill-11" fill="#D2AE82"></path>
                <path d="M173.866949,27.3750961 C173.830929,26.5183902 173.594537,25.8271157 173.157557,25.3004098 C172.720145,24.774351 172.10889,24.5107824 171.323792,24.5107824 C170.431067,24.5107824 169.753165,24.7609784 169.289224,25.2602922 C168.825282,25.7600373 168.548557,26.4649 168.459694,27.3750961 L173.866949,27.3750961 Z M168.432949,30.0252333 C168.50391,31.0959 168.878773,31.8723706 169.557322,32.353998 C170.235008,32.8358412 171.127302,33.0767627 172.233988,33.0767627 C172.840282,33.0767627 173.460596,33.0191745 174.094498,32.9027039 C174.727537,32.7870961 175.329949,32.6216647 175.901302,32.4077039 C176.097361,32.7646647 176.26689,33.1930176 176.409675,33.6925471 C176.552459,34.1922922 176.632694,34.7276255 176.650596,35.2985471 C175.258773,35.8338804 173.688361,36.1017627 171.939361,36.1017627 C170.654518,36.1017627 169.552576,35.9231745 168.633537,35.5662137 C167.714282,35.2094686 166.964773,34.7142529 166.385008,34.0805667 C165.804812,33.4473118 165.376675,32.6932725 165.100165,31.8188804 C164.823224,30.9444882 164.685184,29.9896451 164.685184,28.954351 C164.685184,27.9371745 164.827969,26.9827627 165.113537,26.0902529 C165.398675,25.1979588 165.822714,24.4219196 166.385008,23.7612725 C166.947086,23.1012725 167.643322,22.5793118 168.472851,22.1953902 C169.302812,21.8116843 170.270596,21.6197235 171.377282,21.6197235 C172.340969,21.6197235 173.197459,21.7896843 173.947184,22.1283118 C174.696694,22.4675863 175.334694,22.9315275 175.860969,23.520351 C176.387243,24.1091745 176.784537,24.8099392 177.05242,25.6217824 C177.320086,26.4340569 177.454027,27.3039196 177.454027,28.231802 C177.454027,28.5708608 177.440439,28.9053902 177.413694,29.2353902 C177.386733,29.5660373 177.355459,29.8289588 177.320086,30.0252333 L168.432949,30.0252333 Z" id="Fill-13" fill="#D2AE82"></path>
                <path d="M181.554763,29.757351 C180.555057,29.4722137 179.774488,29.0481745 179.212625,28.4858804 C178.650331,27.9240176 178.369292,27.0806843 178.369292,25.9563118 C178.369292,24.6002922 178.855233,23.5382529 179.828194,22.7708412 C180.800724,22.0036451 182.125469,21.6197235 183.803292,21.6197235 C184.499096,21.6197235 185.186057,21.6824882 185.86439,21.8073706 C186.542508,21.9322529 187.2299,22.1196843 187.925704,22.3692333 C187.889684,22.8333902 187.800606,23.315449 187.658037,23.8149784 C187.515037,24.3147235 187.345508,24.7517039 187.149233,25.1265667 C186.721096,24.9481941 186.248096,24.7918216 185.730449,24.6578804 C185.212802,24.5243706 184.668841,24.4572922 184.09792,24.4572922 C183.490978,24.4572922 183.017763,24.5511157 182.679135,24.7381157 C182.339861,24.9257627 182.170331,25.2247039 182.170331,25.6351549 C182.170331,26.0277039 182.2909,26.3042137 182.531822,26.4649 C182.772527,26.6253706 183.1159,26.7772137 183.562371,26.919998 L185.088351,27.3750961 C185.587665,27.5180961 186.038449,27.6919392 186.439841,27.8970569 C186.841665,28.1026059 187.185037,28.3566843 187.470822,28.6599392 C187.755959,28.9636255 187.979194,29.3382725 188.13988,29.7843118 C188.300351,30.230351 188.380802,30.7745275 188.380802,31.4170569 C188.380802,32.0777039 188.242331,32.6932725 187.966037,33.2641941 C187.68888,33.8355471 187.287488,34.3307627 186.761429,34.7496255 C186.234724,35.169351 185.596724,35.4995667 184.847429,35.7404882 C184.09792,35.9811941 183.249841,36.1017627 182.304273,36.1017627 C181.87592,36.1017627 181.483371,36.0883902 181.12641,36.0614294 C180.769233,36.0346843 180.425861,35.9900373 180.095861,35.9274882 C179.765214,35.8649392 179.439959,35.7892333 179.118802,35.7001549 C178.797429,35.6110765 178.449743,35.4952529 178.074665,35.3520373 C178.110253,34.8704098 178.195233,34.3842529 178.328959,33.8931353 C178.4629,33.4026647 178.637175,32.925351 178.851135,32.4611941 C179.439959,32.6932725 179.997292,32.8671157 180.524214,32.9831549 C181.050273,33.0994098 181.598978,33.156998 182.170331,33.156998 C182.420312,33.156998 182.692292,33.134998 182.98692,33.0901353 C183.281331,33.0459196 183.553096,32.9656843 183.803292,32.8492137 C184.052841,32.7333902 184.262488,32.5815471 184.432449,32.3943314 C184.601763,32.2069 184.686743,31.9616647 184.686743,31.6581941 C184.686743,31.2298412 184.557116,30.9218412 184.298508,30.7346255 C184.039684,30.5471941 183.67841,30.3821941 183.214253,30.2391941 L181.554763,29.757351 Z" id="Fill-15" fill="#D2AE82"></path>
                <path d="M122.705906,29.4363451 C122.491729,29.4005412 122.259651,29.3692667 122.009886,29.3425216 C121.75969,29.3157765 121.536886,29.3024039 121.340612,29.3024039 C120.466004,29.3024039 119.774514,29.4587765 119.266141,29.7708745 C118.757337,30.0834039 118.503259,30.5872471 118.503259,31.2832667 C118.503259,31.7474235 118.60118,32.1043843 118.797671,32.3539333 C118.993729,32.6043451 119.230122,32.7870314 119.506847,32.9028549 C119.783357,33.0191098 120.077984,33.0900706 120.390514,33.1170314 C120.702396,33.1437765 120.974592,33.1569333 121.206671,33.1569333 C121.474553,33.1569333 121.74222,33.1349333 122.009886,33.0900706 C122.277769,33.0458549 122.509416,33.0057373 122.705906,32.9697176 L122.705906,29.4363451 Z M122.705906,26.6790118 C122.705906,26.2508745 122.634298,25.9027569 122.491729,25.6350902 C122.348729,25.3674235 122.152455,25.1577765 121.90269,25.0059333 C121.652494,24.8545216 121.34471,24.7516392 120.979337,24.698149 C120.613318,24.6446588 120.20718,24.6179137 119.761357,24.6179137 C118.797671,24.6179137 117.77122,24.8711294 116.682867,25.2459922 C116.432671,24.782051 116.245455,24.3450706 116.120788,23.9344039 C115.995906,23.5239529 115.933357,23.0332667 115.933357,22.4621294 C116.718455,22.1942471 117.503553,21.9321882 118.288867,21.8073059 C119.07418,21.6824235 119.805788,21.6198745 120.483906,21.6198745 C122.339886,21.6198745 123.789945,22.0661294 124.834082,22.9579922 C125.878004,23.8507176 126.399965,25.2783451 126.399965,27.2413059 L126.399965,35.2717373 C125.775122,35.4684431 125.016769,35.6558745 124.12469,35.8340314 C123.231965,36.0121882 122.224278,36.101698 121.099906,36.101698 C120.189494,36.101698 119.35522,36.0214627 118.596867,35.8607765 C117.838082,35.7000902 117.186925,35.4324235 116.642749,35.0577765 C116.098141,34.6829137 115.679063,34.2010706 115.384651,33.6122471 C115.090024,33.0232078 114.942925,32.3004431 114.942925,31.4439529 C114.942925,30.5872471 115.125612,29.8690118 115.491631,29.2888157 C115.85722,28.7092667 116.33022,28.2451098 116.910416,27.8972078 C117.49018,27.5490902 118.137239,27.2993255 118.851376,27.1474824 C119.564867,26.9960706 120.278788,26.9199333 120.992925,26.9199333 C121.510141,26.9199333 122.081063,26.9468941 122.705906,27.0003843 L122.705906,26.6790118 Z" id="Fill-17" fill="#D2AE82"></path>
                <path d="M145.365173,29.4363451 C145.150996,29.4005412 144.918918,29.3692667 144.669153,29.3425216 C144.418957,29.3157765 144.196153,29.3024039 143.999878,29.3024039 C143.125271,29.3024039 142.43378,29.4587765 141.925408,29.7708745 C141.416604,30.0834039 141.162525,30.5872471 141.162525,31.2832667 C141.162525,31.7474235 141.260447,32.1043843 141.456937,32.3539333 C141.652996,32.6043451 141.889388,32.7870314 142.166114,32.9028549 C142.442839,33.0191098 142.737251,33.0900706 143.04978,33.1170314 C143.361663,33.1437765 143.634075,33.1569333 143.865937,33.1569333 C144.13382,33.1569333 144.401486,33.1349333 144.669153,33.0900706 C144.937035,33.0458549 145.168682,33.0057373 145.365173,32.9697176 L145.365173,29.4363451 Z M145.365173,26.6790118 C145.365173,26.2508745 145.293565,25.9027569 145.150996,25.6350902 C145.007996,25.3674235 144.811722,25.1577765 144.561957,25.0059333 C144.311761,24.8545216 144.003976,24.7516392 143.638604,24.698149 C143.272584,24.6446588 142.866447,24.6179137 142.420624,24.6179137 C141.456937,24.6179137 140.430486,24.8711294 139.342349,25.2459922 C139.091937,24.782051 138.904722,24.3450706 138.780055,23.9344039 C138.655173,23.5239529 138.592624,23.0332667 138.592624,22.4621294 C139.377722,22.1942471 140.16282,21.9321882 140.948133,21.8073059 C141.733447,21.6824235 142.465055,21.6198745 143.143173,21.6198745 C144.999153,21.6198745 146.449212,22.0661294 147.493349,22.9579922 C148.537271,23.8507176 149.059231,25.2783451 149.059231,27.2413059 L149.059231,35.2717373 C148.434388,35.4684431 147.676035,35.6558745 146.783957,35.8340314 C145.891231,36.0121882 144.883545,36.101698 143.759173,36.101698 C142.848761,36.101698 142.014486,36.0214627 141.256133,35.8607765 C140.497349,35.7000902 139.846192,35.4324235 139.302016,35.0577765 C138.757408,34.6829137 138.338329,34.2010706 138.043918,33.6122471 C137.74929,33.0232078 137.602192,32.3004431 137.602192,31.4439529 C137.602192,30.5872471 137.784878,29.8690118 138.151114,29.2888157 C138.516486,28.7092667 138.989486,28.2451098 139.569682,27.8972078 C140.149447,27.5490902 140.796506,27.2993255 141.510643,27.1474824 C142.224133,26.9960706 142.938055,26.9199333 143.652192,26.9199333 C144.169408,26.9199333 144.740329,26.9468941 145.365173,27.0003843 L145.365173,26.6790118 Z" id="Fill-19" fill="#D2AE82"></path>
                <g id="Group-23" transform="translate(0.000000, 0.210510)">
                    <mask id="mask-2" fill="white">
                        <use xlink:href="#path-1"></use>
                    </mask>
                    <g id="Clip-22"></g>
                    <path d="M43.0331863,41.4159922 C42.8733627,45.3184039 40.7585588,48.7577373 39.7083824,49.719698 C39.6195196,49.8012275 39.5032647,49.7376 39.4894608,49.6224235 C38.578402,42.0384627 31.8483431,38.6327765 29.7495,36.4159529 C26.9009314,33.4071294 26.6798529,28.8539922 29.5426569,28.4968157 L29.5426569,28.4968157 C30.4532843,28.3768941 31.7937745,28.2004627 32.7056961,28.0796784 C33.1896961,28.0156196 33.6618333,28.250502 33.9098725,28.6710902 C34.5595196,29.7734627 35.1897549,30.4938549 36.0093627,31.1417765 C36.169402,31.2681686 36.0613431,31.525051 35.8594608,31.4959333 C34.4475784,31.2929725 33.4526176,30.4067176 33.0335392,29.9632667 C32.9125392,29.8353647 32.7298529,29.7883451 32.5618333,29.8405412 C31.7829902,30.0825412 31.2202647,30.209149 30.3223627,30.469698 L30.3221471,30.469698 C29.8506569,30.5710706 29.7988922,30.7574235 29.9431863,31.0429922 C29.9449118,31.0464431 29.9472843,31.0494627 29.9492255,31.0529137 C31.315598,33.5691098 32.8400686,35.2439137 34.9602647,36.6258157 C39.1240882,39.3397961 47.0425784,37.996502 45.2607941,33.7039137 C44.7552255,32.4859333 46.0881667,32.2560118 45.714598,31.0266 C45.6887157,30.9409725 45.5545588,30.9463647 45.4764804,30.9897176 C44.6061863,31.4726392 41.6133235,32.1628353 41.5274804,31.305698 C41.4623431,30.6554039 42.765951,31.0470902 43.4649902,30.5712863 C44.1847353,30.0814627 44.4782843,29.7859725 44.9340294,29.7676392 C45.179049,29.7579333 45.2034216,29.446698 44.7987941,29.2739333 C43.6645,28.8074039 42.5127353,28.3033451 42.2140098,27.7518353 C41.7041275,26.8103647 43.2199706,25.8236 43.1679902,27.0066392 C43.1377941,27.6905804 43.810951,28.0667373 44.9256176,27.4106196 C45.9988725,26.7793059 46.6127157,26.8414235 46.5777745,26.2500118 C46.5408922,25.6234431 45.5176765,25.0913451 44.3656961,24.1830902 C41.9556176,22.2824627 42.2998529,21.4145412 41.8024804,21.174051 C41.240402,20.902502 40.4000882,23.0444824 40.2568725,23.4892275 C40.1136569,23.9339725 39.7786961,24.0830118 39.8028529,23.550698 C39.7948725,21.9093255 37.3323824,22.4597569 36.5369314,22.9620902 C35.7714608,23.4454431 35.5784216,23.7754431 35.9705392,23.0082471 C36.6063824,21.7652471 38.1241667,21.2029529 39.0112843,21.0942471 C39.553951,21.0278157 39.7758922,20.5134039 38.3782451,20.5733647 C36.980598,20.6333255 35.5044412,21.5336 34.7495392,22.3376784 C33.7151078,23.4396196 33.6590294,23.6307176 34.0200882,22.5919725 C35.2697745,18.9969137 38.2348137,18.9820314 39.9061667,19.2218745 C41.1314804,19.3974431 41.9851667,19.1291294 42.2176765,18.7570706 C42.2577941,18.6932275 42.2562843,18.6112667 42.2178922,18.5463451 C38.7203235,12.6287765 31.5929706,11.3230118 27.4578333,14.0518745 C27.3743627,14.1070902 27.2619902,14.0454039 27.2630686,13.9455412 C27.2990882,10.4693255 24.9854216,7.26422745 19.7162059,7.62852157 C19.5844216,7.63758039 19.5507745,7.81638431 19.6698333,7.87354118 C20.8867353,8.45783529 24.0933431,10.3931882 24.1461863,14.5798745 C24.1479118,14.7164039 23.9632843,14.7632078 23.9011667,14.6413451 C22.8171275,12.5112275 17.9238529,4.49244314 8.41769608,11.0831686 C8.31459804,11.1545608 8.36226471,11.3169725 8.48757843,11.3189137 C10.1863235,11.3469529 16.7833039,11.703698 18.9050098,15.5094824 C18.9701471,15.6263843 18.8357745,15.7536392 18.7229706,15.6816 C17.2023824,14.7099333 11.6659314,11.8753843 6.56581373,18.1630706 C6.48579412,18.2614235 6.58134314,18.4048549 6.70277451,18.3679725 C8.03830392,17.9633451 12.5157353,16.9466 17.9266569,19.414051 C18.1095588,19.4973059 18.0670686,19.7688549 17.8671275,19.7917176 C16.8842451,19.9034431 15.1432255,20.2481098 14.0926176,21.3079922 C14.0296373,21.3716196 14.0475392,21.4790314 14.1282059,21.5180706 C17.0302647,22.9204627 19.4923235,23.7316588 22.1970294,23.8287176 C22.3378725,23.8336784 22.3769118,24.0433255 22.2403824,24.078698 C20.2150882,24.6045412 17.3913235,26.6203451 17.8587157,30.172051 C17.8981863,30.4714235 18.2743431,30.5818549 18.4667353,30.348698 C19.1923039,29.4695608 20.7016765,27.7895804 22.4183235,26.7463059 C22.6301275,26.6175412 22.8658725,26.8696784 22.7230882,27.0724235 C22.3296765,27.6304039 21.8786765,28.4437569 21.6565196,29.4568353 C21.6144608,29.6490118 21.8456765,29.7823059 21.9884608,29.6468549 C23.0013235,28.6851098 24.143598,27.9237373 25.1985196,27.3558353 C25.6501667,27.1127569 26.0079902,27.6084039 25.7821667,28.0693255 C20.2349314,39.3850902 36.8095588,40.6252863 30.4220098,52.7004824 C30.3749902,52.7895608 30.2358725,52.7654039 30.197049,52.6722275 C27.146598,45.8599922 23.7316373,46.1923647 23.2183039,46.2240706 C23.1070098,46.2240706 22.7867157,46.3476588 22.3318333,46.5534235 L13.6649118,33.6530118 C13.6351471,33.6085804 13.6235,33.5542275 13.6323431,33.5013843 L13.8307745,32.3297765 C13.8463039,32.2381098 13.8260294,32.1440706 13.7742647,32.0670706 L11.306598,28.3939333 C11.2362843,28.2893255 11.0743039,28.324051 11.0531667,28.4482863 L10.799951,29.9313451 C10.7796765,30.0493255 10.6649314,30.1265412 10.5480294,30.1006588 L9.07942157,29.7743255 C8.95626471,29.7469333 8.86287255,29.8838941 8.93318627,29.988502 L11.4008529,33.6614235 C11.4528333,33.7386392 11.5322059,33.7929922 11.6227941,33.813051 L12.7825392,34.0723059 C12.8347353,34.0839529 12.8806765,34.1154431 12.9106569,34.1598745 L21.5007941,46.9464039 C20.5377549,47.4163843 19.3087745,48.0546 18.1563627,48.6710314 L15.1829118,44.2453647 C15.1531471,44.2007176 15.1415,44.1463647 15.1503431,44.0935216 L15.3489902,42.9219137 C15.3643039,42.8304627 15.3442451,42.7364235 15.2922647,42.6592078 L12.824598,38.9862863 C12.7545,38.8816784 12.5923039,38.9164039 12.5711667,39.0406392 L12.317951,40.523698 C12.2978922,40.6416784 12.1829314,40.7188941 12.0662451,40.6927961 L10.5974216,40.3666784 C10.4744804,40.3392863 10.3810882,40.4760314 10.4511863,40.5806392 L12.9188529,44.2537765 C12.9708333,44.3307765 13.0502059,44.3851294 13.1410098,44.4054039 L14.3005392,44.6646588 C14.352951,44.6763059 14.3986765,44.7075804 14.4286569,44.7520118 L17.3525,49.1041294 C16.0012255,49.8376784 14.8891471,50.4698549 14.6559902,50.6449922 C5.15436275,45.4143843 0.734735294,36.1991882 0.734735294,27.2868157 C0.734735294,12.6451686 12.5879902,0.772070588 27.2220882,0.739867113 C41.8410882,0.707796078 53.6701863,12.3770706 53.8272059,26.9954235 C53.8867353,32.5383451 52.2466569,37.6947569 49.3965784,41.9767765 C46.1060686,41.5393647 43.0338333,41.3996 43.0331863,41.4159922 M27.2816176,0.00509019608 C12.2144216,0.00509019608 -0.000107843137,12.2196196 -0.000107843137,27.2870314 C-0.000107843137,42.3542275 12.2144216,54.5685412 27.2816176,54.5685412 C42.3490294,54.5685412 54.5633431,42.3542275 54.5633431,27.2870314 C54.5633431,12.2196196 42.3490294,0.00509019608 27.2816176,0.00509019608" id="Fill-21" fill="#D8B084" mask="url(#mask-2)"></path>
                </g>
            </g>
        </g>
    </g>
</svg>